<svg width="72" height="72" viewBox="0 0 72 72" fill="none" xmlns="http://www.w3.org/2000/svg">
<path opacity="0.18" fill-rule="evenodd" clip-rule="evenodd" d="M9 6C9.55228 6 10 5.55228 10 5C10 4.44772 9.55228 4 9 4C8.44772 4 8 4.44772 8 5C8 5.55228 8.44772 6 9 6ZM9 24C9.55228 24 10 23.5523 10 23C10 22.4477 9.55228 22 9 22C8.44772 22 8 22.4477 8 23C8 23.5523 8.44772 24 9 24ZM10 41C10 41.5523 9.55228 42 9 42C8.44772 42 8 41.5523 8 41C8 40.4477 8.44772 40 9 40C9.55228 40 10 40.4477 10 41ZM9 60C9.55228 60 10 59.5523 10 59C10 58.4477 9.55228 58 9 58C8.44772 58 8 58.4477 8 59C8 59.5523 8.44772 60 9 60ZM28 5C28 5.55228 27.5523 6 27 6C26.4477 6 26 5.55228 26 5C26 4.44772 26.4477 4 27 4C27.5523 4 28 4.44772 28 5ZM45 6C45.5523 6 46 5.55228 46 5C46 4.44772 45.5523 4 45 4C44.4477 4 44 4.44772 44 5C44 5.55228 44.4477 6 45 6ZM64 5C64 5.55228 63.5523 6 63 6C62.4477 6 62 5.55228 62 5C62 4.44772 62.4477 4 63 4C63.5523 4 64 4.44772 64 5ZM27 24C27.5523 24 28 23.5523 28 23C28 22.4477 27.5523 22 27 22C26.4477 22 26 22.4477 26 23C26 23.5523 26.4477 24 27 24ZM28 41C28 41.5523 27.5523 42 27 42C26.4477 42 26 41.5523 26 41C26 40.4477 26.4477 40 27 40C27.5523 40 28 40.4477 28 41ZM27 60C27.5523 60 28 59.5523 28 59C28 58.4477 27.5523 58 27 58C26.4477 58 26 58.4477 26 59C26 59.5523 26.4477 60 27 60ZM46 23C46 23.5523 45.5523 24 45 24C44.4477 24 44 23.5523 44 23C44 22.4477 44.4477 22 45 22C45.5523 22 46 22.4477 46 23ZM63 24C63.5523 24 64 23.5523 64 23C64 22.4477 63.5523 22 63 22C62.4477 22 62 22.4477 62 23C62 23.5523 62.4477 24 63 24ZM46 41C46 41.5523 45.5523 42 45 42C44.4477 42 44 41.5523 44 41C44 40.4477 44.4477 40 45 40C45.5523 40 46 40.4477 46 41ZM63 42C63.5523 42 64 41.5523 64 41C64 40.4477 63.5523 40 63 40C62.4477 40 62 40.4477 62 41C62 41.5523 62.4477 42 63 42ZM46 59C46 59.5523 45.5523 60 45 60C44.4477 60 44 59.5523 44 59C44 58.4477 44.4477 58 45 58C45.5523 58 46 58.4477 46 59ZM63 60C63.5523 60 64 59.5523 64 59C64 58.4477 63.5523 58 63 58C62.4477 58 62 58.4477 62 59C62 59.5523 62.4477 60 63 60Z" fill="#222230"/>
</svg>
